<?xml version="1.0" standalone="no"?>
<!DOCTYPE svg PUBLIC "-//W3C//DTD SVG 20010904//EN"
 "http://www.w3.org/TR/2001/REC-SVG-20010904/DTD/svg10.dtd">
<svg version="1.0" xmlns="http://www.w3.org/2000/svg"
 width="1024" height="1024" viewBox="0 0 1024 1024"
 preserveAspectRatio="xMidYMid meet">
<metadata>
Created by potrace 1.16, written by Peter Selinger 2001-2019
</metadata>
<g transform="translate(0.000000,1024.000000) scale(0.100000,-0.100000)"
fill="#ffffff" stroke="none">
<path d="M5035 9508 c-38 -22 -151 -84 -250 -138 -99 -53 -648 -352 -1220
-665 -1350 -737 -1984 -1083 -2225 -1213 -107 -58 -247 -133 -310 -167 -68
-37 -120 -72 -128 -86 -10 -18 -12 -56 -7 -154 4 -71 10 -134 15 -139 5 -4 26
-12 47 -15 49 -9 8313 -6 8341 3 31 10 36 37 35 185 -1 115 -4 136 -20 152
-10 9 -290 164 -623 344 -739 400 -1647 894 -2565 1395 -379 207 -730 398
-780 425 -49 26 -115 63 -146 82 -31 18 -65 33 -75 32 -11 0 -50 -18 -89 -41z
m445 -843 c140 -76 428 -233 640 -348 480 -263 878 -479 1223 -667 l267 -145
-58 -6 c-88 -10 -4944 -10 -4938 0 3 4 106 61 228 126 284 149 875 469 1270
687 169 93 466 254 660 357 l353 189 50 -28 c28 -15 165 -90 305 -165z"/>
<path d="M1251 6634 c-22 -16 -23 -20 -19 -148 4 -149 17 -185 86 -248 80 -72
44 -69 842 -66 701 3 716 3 760 24 117 54 156 124 166 295 6 110 6 117 -15
138 l-21 21 -888 0 c-803 0 -890 -2 -911 -16z"/>
<path d="M7159 6629 c-21 -21 -21 -28 -15 -123 8 -129 18 -170 53 -219 41 -57
99 -95 163 -106 30 -5 355 -12 722 -15 621 -5 670 -4 731 13 80 22 134 64 171
131 25 47 29 64 33 173 4 99 2 126 -10 142 -15 20 -29 20 -921 23 l-906 2 -21
-21z"/>
<path d="M4960 6374 c-30 -8 -93 -33 -140 -55 -69 -34 -101 -58 -170 -128
-126 -127 -184 -251 -201 -429 -37 -393 275 -736 671 -735 361 0 639 268 674
648 9 97 -20 232 -74 341 -87 175 -261 316 -442 359 -79 19 -246 18 -318 -1z"/>
<path d="M1683 5960 c-121 -7 -133 -17 -133 -115 0 -43 5 -78 13 -89 7 -10 38
-26 67 -36 l55 -19 0 -68 c0 -37 -3 -185 -8 -328 -4 -143 -12 -458 -17 -700
-5 -242 -14 -636 -20 -875 -5 -239 -13 -579 -16 -755 -3 -176 -7 -340 -9 -365
-2 -25 -5 -164 -6 -310 0 -146 -4 -285 -8 -310 -6 -43 -7 -45 -56 -58 -81 -23
-85 -30 -85 -144 l0 -98 510 0 510 0 0 41 c0 52 -13 74 -49 87 -21 8 -31 19
-36 42 -4 19 -26 52 -50 76 -45 45 -91 64 -212 86 l-63 11 0 1646 c0 1101 4
1658 10 1683 15 54 34 68 91 68 42 0 49 -3 53 -22 3 -13 7 -282 10 -598 4
-316 9 -659 13 -762 l6 -186 36 59 c58 95 148 203 248 299 l92 89 3 198 c2
109 2 407 0 663 -2 256 -3 482 -3 503 1 31 4 37 22 37 36 0 97 22 119 42 16
15 20 31 20 89 0 84 -9 104 -53 118 -34 12 -854 12 -1054 1z"/>
<path d="M7475 5935 c-21 -20 -25 -34 -25 -87 0 -40 6 -71 15 -85 15 -21 92
-53 128 -53 20 0 20 -8 13 -682 -4 -376 -5 -694 -1 -708 3 -14 27 -41 51 -60
59 -46 178 -181 261 -298 36 -51 67 -91 68 -90 9 11 15 360 15 885 l0 612 23
27 c19 22 34 28 79 32 51 4 56 3 61 -19 4 -13 7 -778 7 -1699 l0 -1676 -80
-12 c-146 -21 -218 -68 -242 -158 -8 -29 -18 -44 -29 -44 -26 0 -46 -31 -52
-83 l-7 -47 513 2 512 3 3 94 c3 110 -4 123 -79 141 -27 7 -51 15 -54 20 -8
13 -14 179 -25 649 -12 537 -28 1171 -35 1396 -3 88 -7 286 -10 440 -3 154 -8
323 -10 375 -2 52 -7 217 -10 365 -3 149 -8 327 -11 396 l-6 127 54 16 c30 8
62 24 71 33 18 20 26 149 11 175 -22 37 -40 38 -619 38 l-566 0 -24 -25z"/>
<path d="M3402 5568 c-240 -33 -439 -233 -474 -475 -48 -336 203 -634 537
-637 273 -2 504 183 560 449 18 88 18 142 0 228 -41 196 -212 375 -401 421
-83 20 -149 24 -222 14z"/>
<path d="M6689 5569 c-215 -31 -391 -177 -460 -381 -86 -256 35 -555 272 -672
344 -169 737 21 815 394 38 183 -25 372 -172 509 -126 118 -294 174 -455 150z"/>
<path d="M5020 4819 c-469 -37 -862 -335 -1011 -767 -46 -134 -49 -173 -64
-1087 -5 -274 -4 -329 10 -380 38 -142 143 -242 320 -307 l83 -30 6 -102 c11
-190 25 -471 31 -616 14 -387 36 -882 41 -937 l6 -63 678 0 678 0 6 77 c4 43
13 272 21 508 14 394 36 841 51 1056 l6 85 74 23 c134 42 249 133 302 241 l27
55 0 610 c0 651 -1 668 -52 828 -68 216 -196 405 -368 544 -189 151 -412 243
-630 259 -44 3 -89 6 -100 8 -11 1 -63 -1 -115 -5z"/>
<path d="M3265 4260 c-370 -50 -697 -327 -814 -690 -37 -117 -41 -182 -41
-687 0 -472 1 -495 20 -547 41 -108 160 -198 301 -228 l57 -11 6 -101 c3 -56
13 -351 21 -656 9 -305 19 -611 23 -680 l7 -125 575 0 575 0 6 210 c4 116 12
464 19 774 l13 565 -34 25 c-139 106 -209 183 -260 287 -60 122 -62 139 -60
689 2 719 10 843 70 1035 16 52 26 98 23 101 -4 4 -45 14 -92 23 -103 20 -319
28 -415 16z"/>
<path d="M6640 4259 c-36 -4 -95 -15 -131 -24 l-66 -17 33 -97 c37 -110 59
-219 74 -370 14 -142 13 -1154 -1 -1223 -28 -134 -130 -282 -264 -383 l-78
-58 7 -311 c3 -171 9 -408 12 -526 4 -118 9 -327 13 -465 l6 -250 572 -5 571
-5 6 60 c3 33 15 332 26 665 11 333 23 660 26 726 l6 122 58 11 c131 26 247
109 294 210 20 45 21 60 24 549 2 430 1 516 -13 590 -34 181 -121 344 -263
493 -232 244 -556 354 -912 308z"/>
<path d="M1320 1489 c-76 -31 -101 -90 -108 -251 l-5 -128 244 -1 c134 0 429
0 654 1 l410 1 -3 143 c-2 79 -6 165 -10 192 l-7 49 -575 2 c-364 1 -584 -2
-600 -8z"/>
<path d="M7745 1488 c-4 -12 -25 -316 -25 -360 0 -17 38 -18 657 -18 l656 0
-6 130 c-6 147 -24 195 -86 237 l-34 23 -579 0 c-454 0 -580 -3 -583 -12z"/>
<path d="M960 947 c-13 -7 -35 -28 -47 -46 -21 -32 -23 -44 -23 -187 0 -149 1
-154 23 -167 17 -10 183 -12 817 -12 l795 0 0 210 0 210 -770 2 c-590 2 -776
-1 -795 -10z"/>
<path d="M7723 947 c-12 -19 -17 -399 -5 -406 18 -11 1610 -7 1621 4 6 6 11
82 13 170 3 140 1 164 -15 188 -37 57 -7 55 -839 55 -572 0 -770 -3 -775 -11z"/>
</g>
</svg>
